<?xml version="1.0" encoding="utf-8"?>
<!-- Generator: Adobe Illustrator 19.1.0, SVG Export Plug-In . SVG Version: 6.00 Build 0)  -->
<svg version="1.1" id="Layer_1" xmlns="http://www.w3.org/2000/svg" xmlns:xlink="http://www.w3.org/1999/xlink" x="0px" y="0px"
	 viewBox="0 0 50 50" style="enable-background:new 0 0 50 50;" xml:space="preserve">
<style type="text/css">
	.st0{display:none;fill:#414042;}
	.st1{fill:none;stroke:#FFFFFF;stroke-width:1.5;stroke-miterlimit:10;}
</style>
<rect x="-6.2" y="-6.1" class="st0" width="62.4" height="65.3"/>
<g>
	<path class="st1" d="M-2,24.8c1.8,0,3.6,0,5.4,0c0.5,0,0.8,0.2,0.9,0.7c1.1,3.7,2.5,7.3,5.2,10.2c4,4.3,8.9,6.8,14.9,6.4
		c5.5-0.4,9.7-2.9,12.6-7.7c2.4-3.9,2.9-8,1.5-12.3c-2.2-6.4-9.2-10.1-15.4-8.1c-3.9,1.2-6.7,4.6-6.9,8.7c-0.2,3.3,1.2,5.9,4.1,7.5
		c2.2,1.2,5,1.1,6.9-1c1.1-1.2,1.2-3,0.3-4.3c-0.6-0.8-1.7-0.9-2.2,0c-0.4,0.8-0.9,1.5-1.8,1.3c-1-0.2-1.7-0.9-2-1.9
		c-0.2-0.7-0.2-1.6,0-2.4c0.6-2.1,2.9-3.4,5-3.4c5.4,0.1,8.7,5.6,7.4,10.1c-0.8,2.9-2.2,5.3-4.7,6.7c-3.5,2-7.2,2.2-10.9,0.5
		c-3.4-1.5-6-3.8-7.3-7.4c-1.5-4.1-1.1-8.2,0.8-12.2c3.7-7.7,12.8-11,21.4-7.8c5.8,2.1,9.2,6.5,11.2,12.1c0.4,1.3,0.7,2.6,1.2,4.1
		c2.3,0,4.7,0,7,0"/>
</g>
</svg>
