<?xml version="1.0" encoding="utf-8"?>
<!-- Generator: Adobe Illustrator 19.1.0, SVG Export Plug-In . SVG Version: 6.00 Build 0)  -->
<svg version="1.1" id="Layer_1" xmlns="http://www.w3.org/2000/svg" xmlns:xlink="http://www.w3.org/1999/xlink" x="0px" y="0px"
	 viewBox="0 0 50 50" style="enable-background:new 0 0 50 50;" xml:space="preserve">
<style type="text/css">
	.st0{display:none;fill:#414042;}
	.st1{display:none;}
	.st2{display:inline;fill:#FFFFFF;}
	.st3{display:none;fill:none;stroke:#FFFFFF;stroke-width:0.75;stroke-linecap:square;stroke-miterlimit:10;}
	.st4{display:none;fill:#FFFFFF;}
	.st5{display:none;fill:none;stroke:#414042;stroke-miterlimit:10;}
	.st6{fill:#FFFFFF;}
</style>
<rect x="-6.2" y="-6.1" class="st0" width="62.4" height="65.3"/>
<g class="st1">
	<polygon class="st2" points="0.8,26.7 34.9,17.6 49.3,21.9 15.2,32.4 	"/>
	<path class="st2" d="M34.9,17.9l13.5,4L15.2,32.1L1.6,26.8L34.9,17.9 M34.9,17.3L0,26.7l15.1,6l34.9-10.7L34.9,17.3L34.9,17.3z"/>
</g>
<polyline class="st3" points="-0.8,27 14.8,33.2 50.8,22.1 "/>
<polyline class="st3" points="-0.8,29.8 14.7,36 51.7,24.5 "/>
<polyline class="st3" points="-0.6,32.6 14.7,39 52.3,27 "/>
<rect x="2.6" y="10" class="st4" width="44.7" height="29"/>
<line class="st5" x1="0.4" y1="19.7" x2="48.6" y2="19.7"/>
<line class="st5" x1="24.5" y1="39" x2="24.5" y2="10"/>
<line class="st5" x1="2.6" y1="28.9" x2="47.2" y2="28.9"/>
<rect x="2.9" y="10" class="st6" width="21.2" height="9.2"/>
<rect x="25" y="10" class="st6" width="21.9" height="9.2"/>
<rect x="2.9" y="20" class="st6" width="21.2" height="9.2"/>
<rect x="25" y="20" class="st6" width="21.9" height="9.2"/>
<rect x="2.9" y="30.1" class="st6" width="21.2" height="9.2"/>
<rect x="25" y="30.1" class="st6" width="21.9" height="9.2"/>
</svg>
